#!OML:ASF F:\VICON\USERDATA\INSTALL\rory3\rory3.ASF
:FULLY-SPECIFIED
:DEGREES
301
root -0.56275 17.4261 2.56728 -166.853 6.65918 -172.713
lowerback -10.9397 4.49931 1.57182
upperback -7.49236 6.91062 2.16295
thorax -1.83476 3.90335 1.97409
lowerneck -7.88271 0.526651 -3.24425
upperneck 33.5099 -3.39113 3.7018
head 12.4817 -2.78526 1.26815
rclavicle 4.07384e-014 1.93815e-014
rhumerus -327.833 63.0401 350.817
rradius 84.4352
rwrist 21.9338
rhand -30.7192 250.782
rfingers 7.12502
rthumb -4.01201 79.2758
lclavicle 4.07384e-014 1.93815e-014
lhumerus 55.4081 -44.1423 -15.1725
lradius 88.1122
lwrist -42.3728
lhand -38.1319 5.53598
lfingers 7.12502
lthumb -11.1664 35.2188
rfemur -21.0168 -14.892 26.3224
rtibia 53.4982
rfoot 16.6693 -23.6404
rtoes 32.3766
lfemur -49.5216 -6.65542 -9.88011
ltibia 42.5199
lfoot -34.8412 12.9736
ltoes 53.1656
302
root -0.61461 17.4849 2.37615 -166.659 6.75273 -172.063
lowerback -10.6747 4.36957 2.52471
upperback -7.84048 6.75327 2.24859
thorax -2.25506 3.81715 1.47768
lowerneck -7.74423 0.685493 -2.86014
upperneck 33.3594 -3.1998 3.61465
head 12.3741 -2.66904 1.19176
rclavicle -7.34758e-014 -4.17448e-015
rhumerus -328.712 63.5836 353.172
rradius 84.9763
rwrist 21.1648
rhand -27.0285 250.317
rfingers 7.12502
rthumb -0.447632 79.7033
lclavicle -7.34758e-014 -4.17448e-015
lhumerus 53.3494 -45.1468 -17.4345
lradius 88.1257
lwrist -41.7917
lhand -37.5298 5.57739
lfingers 7.12502
lthumb -10.5857 35.2908
rfemur -22.1897 -18.3421 26.1369
rtibia 55.755
rfoot 12.7216 -31.3534
rtoes 45.5097
lfemur -49.0902 -6.43333 -9.62528
ltibia 42.8327
lfoot -34.336 13.3527
ltoes 53.0976
303
root -0.664294 17.5365 2.19263 -166.578 6.89124 -171.215
lowerback -10.4507 4.30419 3.66001
upperback -7.91302 6.62121 2.42959
thorax -2.36327 3.7193 1.00646
lowerneck -7.81153 0.852554 -2.61446
upperneck 33.0273 -2.90157 3.61272
head 12.2343 -2.48008 1.18941
rclavicle -7.44697e-014 -4.14466e-014
rhumerus -329.468 63.8581 355.654
rradius 85.354
rwrist 20.3873
rhand -23.8825 251.851
rfingers 7.12502
rthumb 2.59088 78.1846
lclavicle -7.44697e-014 -4.14466e-014
lhumerus 51.1054 -45.9964 -19.1475
lradius 87.8129
lwrist -41.7802
lhand -36.9446 5.9277
lfingers 7.12502
lthumb -10.0211 35.6691
rfemur -23.2648 -21.7663 26.1959
rtibia 58.2707
rfoot 2.94449 -37.0583
rtoes 54.6911
lfemur -48.4644 -6.3029 -9.08815
ltibia 43.1111
lfoot -34.2762 12.7856
ltoes 53.3446
304
root -0.713301 17.5921 2.00264 -166.56 7.26023 -170.808
lowerback -10.1763 4.22111 4.37047
upperback -8.11913 6.52988 2.54159
thorax -2.67996 3.65827 0.686316
lowerneck -7.48559 1.0645 -2.62618
upperneck 32.7049 -2.5833 3.70472
head 12.0206 -2.32995 1.2687
rclavicle 2.71838e-014 2.8128e-014
rhumerus -331.096 63.7981 356.812
rradius 85.0816
rwrist 20.48
rhand -20.6713 253.379
rfingers 7.12502
rthumb 5.6917 76.7177
lclavicle 2.71838e-014 2.8128e-014
lhumerus 48.5919 -47.3487 -20.4767
lradius 87.3724
lwrist -42.0846
lhand -36.6702 6.28199
lfingers 7.12502
lthumb -9.75643 36.036
rfemur -24.3872 -25.2162 25.6415
rtibia 60.9786
rfoot -3.28635 -39.1573
rtoes 58.627
lfemur -47.6463 -6.48398 -8.93191
ltibia 43.2995
lfoot -34.8477 11.4561
ltoes 53.5885
305
root -0.764289 17.644 1.80931 -166.727 7.52244 -170.7
lowerback -9.71026 4.08643 4.85595
upperback -8.33604 6.38709 2.53584
thorax -3.12323 3.56471 0.345955
lowerneck -7.28339 1.2145 -2.49111
upperneck 32.5878 -2.38867 3.66324
head 11.9209 -2.24374 1.25211
rclavicle 2.65626e-014 2.94201e-014
rhumerus -332.789 64.1954 357.824
rradius 84.7296
rwrist 20.402
rhand -18.6183 258.386
rfingers 7.12502
rthumb 7.67363 71.773
lclavicle 2.65626e-014 2.94201e-014
lhumerus 45.7607 -48.7285 -21.3736
lradius 86.5093
lwrist -42.7318
lhand -37.2953 6.26725
lfingers 7.12502
lthumb -10.3595 35.9921
rfemur -25.3866 -28.752 24.626
rtibia 63.8252
rfoot -2.23267 -40.5649
rtoes 59.1415
lfemur -46.6387 -6.86565 -9.10232
ltibia 43.3783
lfoot -35.3084 10.4044
ltoes 53.6427
306
root -0.809346 17.6952 1.63339 -167.092 7.70461 -170.626
lowerback -8.88499 3.89924 5.20813
upperback -8.47847 6.18592 2.5738
thorax -3.70542 3.43179 0.0933976
lowerneck -7.1976 1.44043 -2.20801
upperneck 32.6374 -2.06752 3.41289
head 11.906 -2.11174 1.14419
rclavicle 1.31943e-014 -2.127e-014
rhumerus -334.968 64.1168 358.258
rradius 83.7919
rwrist 20.56
rhand -16.8728 264.329
rfingers 7.12502
rthumb 9.35807 65.8987
lclavicle 1.31943e-014 -2.127e-014
lhumerus 42.1298 -50.0442 -21.3616
lradius 85.3222
lwrist -43.6009
lhand -37.8259 5.49819
lfingers 7.12502
lthumb -10.8714 35.1968
rfemur -26.2556 -31.9388 23.4957
rtibia 66.8271
rfoot 2.67064 -41.8126
rtoes 57.3691
lfemur -45.4851 -7.09018 -9.35475
ltibia 43.3043
lfoot -35.384 10.4172
ltoes 53.4648
307
root -0.847047 17.7479 1.4672 -167.456 7.95582 -170.68
lowerback -8.17431 3.80838 5.34128
upperback -8.4763 6.07849 2.54714
thorax -4.08111 3.3455 -0.076405
lowerneck -7.27438 1.56274 -1.87611
upperneck 32.5955 -1.83505 3.10548
head 11.8925 -1.99861 0.998227
rclavicle -1.50331e-014 -7.95139e-016
rhumerus -336.788 64.2389 359.085
rradius 82.7195
rwrist 19.9162
rhand -15.3429 265.965
rfingers 7.12502
rthumb 10.834 64.3347
lclavicle -1.50331e-014 -7.95139e-016
lhumerus 38.349 -50.998 -20.802
lradius 84.04
lwrist -44.4316
lhand -38.1631 4.70342
lfingers 7.12502
lthumb -11.1966 34.3847
rfemur -27.2059 -34.8729 22.1749
rtibia 69.9925
rfoot 7.86483 -41.1043
rtoes 57.6281
lfemur -44.3179 -6.98771 -9.82319
ltibia 43.0956
lfoot -34.869 11.4752
ltoes 53.1052
308
root -0.885719 17.7962 1.28161 -167.947 8.30501 -171.238
lowerback -7.71208 3.7772 5.03653
upperback -8.32871 5.99733 2.34161
thorax -4.1783 3.28085 -0.157097
lowerneck -7.77816 1.67995 -1.75507
upperneck 32.7759 -1.64566 3.05274
head 12.0636 -1.89282 0.979056
rclavicle 3.26255e-014 4.9398e-014
rhumerus -338.978 64.0814 359.296
rradius 81.1487
rwrist 19.1907
rhand -14.08 269.574
rfingers 7.12502
rthumb 12.052 60.7933
lclavicle 3.26255e-014 4.9398e-014
lhumerus 34.6453 -51.748 -19.9369
lradius 82.6719
lwrist -44.956
lhand -38.2953 3.65886
lfingers 7.12502
lthumb -11.3241 33.3331
rfemur -27.9829 -37.9556 20.0398
rtibia 73.3262
rfoot 13.4082 -41.1964
rtoes 56.1914
lfemur -42.9142 -7.06789 -10.8529
ltibia 42.7202
lfoot -34.6551 12.3954
ltoes 52.8853
309
root -0.930186 17.8385 1.09691 -168.594 8.73918 -171.924
lowerback -7.07079 3.88951 4.78294
upperback -8.42577 6.16028 1.98866
thorax -4.61076 3.33566 -0.436002
lowerneck -7.30588 1.73354 -1.57303
upperneck 32.8299 -1.72444 3.13596
head 11.991 -1.93402 0.964456
rclavicle 4.07757e-014 3.57812e-015
rhumerus -343.352 64.2621 357.646
rradius 79.4404
rwrist 18.6514
rhand -13.5428 444.066
rfingers 7.12502
rthumb 12.5699 54.4637
lclavicle 4.07757e-014 3.57812e-015
lhumerus 31.8261 -52.8072 -19.5116
lradius 81.4048
lwrist -45.2051
lhand -38.1961 3.57501
lfingers 7.12502
lthumb -11.2284 33.2545
rfemur -28.6294 -40.875 17.514
rtibia 76.8529
rfoot 17.0582 -42.464
rtoes 54.0924
lfemur -41.294 -7.26493 -12.0273
ltibia 42.2301
lfoot -34.9659 12.5685
ltoes 52.8345
310
root -0.955781 17.8838 0.950282 -168.737 8.8989 -172.724
lowerback -6.4045 3.87545 4.00913
upperback -8.73821 6.22677 1.73564
thorax -5.35386 3.38718 -0.351933
lowerneck -7.3188 1.70094 -1.49172
upperneck 33.1239 -1.85999 3.08811
head 12.1187 -2.01811 0.909917
rclavicle 2.83517e-014 1.45113e-014
rhumerus -347.989 64.1346 355.851
rradius 77.7668
rwrist 18.0295
rhand -16.1784 437.778
rfingers 7.12502
rthumb 10.0281 48.0373
lclavicle 2.83517e-014 1.45113e-014
lhumerus 28.8403 -53.7444 -18.458
lradius 79.9361
lwrist -44.9821
lhand -38.0865 3.63732
lfingers 7.12502
lthumb -11.1227 33.3226
rfemur -30.2221 -43.6484 15.5996
rtibia 80.5762
rfoot 14.7109 -45.1609
rtoes 54.9769
lfemur -40.418 -6.2841 -13.4754
ltibia 41.6709
lfoot -33.6632 13.7242
ltoes 52.5524
311
root -0.988351 17.9275 0.78874 -168.833 9.20587 -173.559
lowerback -6.03134 3.85891 3.29168
upperback -8.83933 6.22216 1.51959
thorax -5.71032 3.40424 -0.223398
lowerneck -7.84492 1.71709 -1.40743
upperneck 33.4717 -1.77364 2.78896
head 12.3675 -2.00354 0.787733
rclavicle -4.8255e-014 -2.88238e-014
rhumerus -351.57 63.8122 354.776
rradius 76.1183
rwrist 16.9356
rhand -21.6482 431.031
rfingers 7.12502
rthumb 4.74849 41.1044
lclavicle -4.8255e-014 -2.88238e-014
lhumerus 24.7814 -54.249 -16.3663
lradius 78.4196
lwrist -44.4265
lhand -38.4446 3.35718
lfingers 7.12502
lthumb -11.468 33.0235
rfemur -31.7415 -46.3823 13.4989
rtibia 84.2429
rfoot 13.0382 -46.5655
rtoes 56.412
lfemur -39.5394 -5.5343 -14.91
ltibia 41.1995
lfoot -32.7491 13.9192
ltoes 52.4658
312
root -1.01735 17.9665 0.624764 -168.873 9.37018 -174.022
lowerback -5.75451 3.81565 2.85085
upperback -8.90938 6.18488 1.48391
thorax -5.97835 3.40414 -0.0499417
lowerneck -8.32209 1.74401 -1.54253
upperneck 33.725 -1.67156 2.6968
head 12.5708 -1.98041 0.786466
rclavicle 2.80783e-015 -1.09332e-014
rhumerus -355.346 63.4812 353.568
rradius 74.894
rwrist 15.6043
rhand -27.3038 423.882
rfingers 7.12502
rthumb -0.713494 33.9033
lclavicle 2.80783e-015 -1.09332e-014
lhumerus 19.9676 -54.4017 -13.5817
lradius 77.2266
lwrist -44.0218
lhand -38.5059 4.18582
lfingers 7.12502
lthumb -11.5272 33.8488
rfemur -33.1224 -49.0043 11.9106
rtibia 87.7387
rfoot 11.5436 -47.6953
rtoes 57.847
lfemur -38.7565 -4.56356 -15.9933
ltibia 40.8403
lfoot -32.3209 13.4979
ltoes 52.8365
313
root -1.04561 18.0029 0.465582 -168.622 9.46475 -173.91
lowerback -5.87436 3.87526 3.07698
upperback -9.1201 6.31875 1.52218
thorax -6.12296 3.47701 -0.13566
lowerneck -7.96484 1.77568 -1.64507
upperneck 33.5682 -1.6368 2.79045
head 12.4288 -1.9736 0.846352
rclavicle -2.8128e-014 -1.78906e-015
rhumerus -360.192 63.2008 351.461
rradius 73.3008
rwrist 15.9254
rhand -32.2556 414.341
rfingers 7.12502
rthumb -5.49555 24.4325
lclavicle -2.8128e-014 -1.78906e-015
lhumerus 15.7454 -54.4595 -11.0685
lradius 76.0738
lwrist -43.6224
lhand -38.1551 4.91517
lfingers 7.12502
lthumb -11.1889 34.5968
rfemur -34.9335 -51.3825 11.4413
rtibia 91.0977
rfoot 10.0166 -48.8977
rtoes 58.8577
lfemur -38.3723 -3.97731 -16.2743
ltibia 40.618
lfoot -32.3041 13.6107
ltoes 53.1042
314
root -1.07795 18.0423 0.301314 -168.162 9.69362 -173.77
lowerback -6.40182 4.0498 3.35303
upperback -9.10016 6.54275 1.55368
thorax -5.77988 3.59044 -0.199377
lowerneck -8.36569 1.72435 -1.83536
upperneck 33.4641 -1.57479 2.82067
head 12.468 -1.92686 0.904796
rclavicle -7.33018e-016 -6.06293e-015
rhumerus -364.236 62.123 349.935
rradius 71.4765
rwrist 16.0346
rhand -34.015 408.871
rfingers 7.12502
rthumb -7.194 19.0132
lclavicle -7.33018e-016 -6.06293e-015
lhumerus 12.5022 -54.1078 -8.89066
lradius 74.147
lwrist -42.8763
lhand -38.1439 5.22676
lfingers 7.12502
lthumb -11.1781 34.909
rfemur -37.2052 -53.7154 11.2275
rtibia 94.42
rfoot 10.4666 -49.8182
rtoes 59.0682
lfemur -38.2814 -3.7064 -16.4484
ltibia 40.4903
lfoot -31.601 15.9434
ltoes 52.3485
315
root -1.10181 18.0839 0.158899 -167.495 9.44077 -173.641
lowerback -6.76834 3.97417 3.45393
upperback -9.39453 6.52691 1.67174
thorax -5.90282 3.61526 -0.119516
lowerneck -8.17393 1.74136 -1.93071
upperneck 33.2404 -1.48283 2.81714
head 12.3309 -1.88689 0.935508
rclavicle 2.45499e-014 2.40032e-014
rhumerus -368.12 60.9715 348.437
rradius 69.7481
rwrist 16.1271
rhand -34.2418 409.113
rfingers 7.12502
rthumb -7.41298 19.2625
lclavicle 2.45499e-014 2.40032e-014
lhumerus 9.36317 -53.9724 -6.67644
lradius 72.0131
lwrist -41.9036
lhand -38.5076 5.29607
lfingers 7.12502
lthumb -11.5288 34.959
rfemur -40.0553 -56.3497 11.7531
rtibia 97.6941
rfoot 10.8733 -50.6889
rtoes 58.5897
lfemur -38.5821 -2.92631 -16.7246
ltibia 40.3898
lfoot -29.4459 19.0836
ltoes 51.1738
